<svg xmlns="http://www.w3.org/2000/svg" style="display: none;">
    <symbol id="calendar" viewBox="0 0 8 9">
        <path id="Vector" fill-rule="evenodd" clip-rule="evenodd" d="M5.77778 0C5.6599 0 5.54686 0.0474106 5.46351 0.131802C5.38016 0.216193 5.33333 0.330653 5.33333 0.45V0.9H2.66667V0.45C2.66667 0.330653 2.61984 0.216193 2.53649 0.131802C2.45314 0.0474106 2.3401 0 2.22222 0C2.10435 0 1.9913 0.0474106 1.90795 0.131802C1.8246 0.216193 1.77778 0.330653 1.77778 0.45V0.9C1.57333 0.9 1.39556 0.90135 1.24667 0.9135C1.07111 0.92835 0.896444 0.9603 0.728445 1.04715C0.477475 1.17638 0.273354 1.38274 0.145333 1.63665C0.0595555 1.8072 0.0280004 1.98405 0.0133338 2.1618C4.76837e-07 2.3301 0 2.5344 0 2.7711V7.1289C0 7.3656 4.76837e-07 7.5699 0.0133338 7.7382C0.0280004 7.91595 0.0595555 8.0928 0.145333 8.2629C0.273303 8.51696 0.477426 8.72347 0.728445 8.85285C0.896444 8.9397 1.07067 8.97165 1.24622 8.98605C1.41244 9 1.61422 9 1.848 9H6.152C6.38578 9 6.58756 9 6.75378 8.9865C6.92933 8.97165 7.104 8.9397 7.272 8.85285C7.52287 8.72342 7.72684 8.51691 7.85467 8.2629C7.94044 8.0928 7.972 7.9155 7.98622 7.73775C8 7.56945 8 7.36425 8 7.128V2.7729C8 2.5353 8 2.331 7.98667 2.16225C7.972 1.9845 7.94044 1.8072 7.85467 1.6371C7.72698 1.38314 7.52317 1.17663 7.27244 1.04715C7.10356 0.9603 6.92889 0.92835 6.75333 0.91395C6.604 0.90135 6.42622 0.9 6.22222 0.9V0.45C6.22222 0.330653 6.1754 0.216193 6.09205 0.131802C6.0087 0.0474106 5.89565 0 5.77778 0ZM6.68089 1.8108C6.80178 1.8207 6.84667 1.8378 6.86844 1.84905C6.95207 1.89219 7.02006 1.96103 7.06267 2.0457C7.07378 2.0682 7.09067 2.1132 7.10044 2.2356C7.10933 2.34765 7.11111 2.49075 7.11111 2.7H0.888889C0.888889 2.4903 0.890222 2.3472 0.899556 2.23515C0.909333 2.1132 0.926222 2.06775 0.937333 2.0457C0.980059 1.96096 1.04821 1.89212 1.132 1.84905C1.15422 1.8378 1.19867 1.8207 1.31911 1.8108C1.44489 1.8 1.61022 1.8 1.86667 1.8H6.13333C6.38933 1.8 6.55511 1.8 6.68089 1.8108ZM0.888889 3.6H7.11111V7.11C7.11111 7.36965 7.11111 7.53705 7.10044 7.6644C7.09067 7.7868 7.07378 7.8318 7.06267 7.8543C7.02006 7.93897 6.95207 8.00781 6.86844 8.05095C6.84667 8.0622 6.80178 8.0793 6.68178 8.0892C6.55556 8.09955 6.39067 8.1 6.13511 8.1H1.86533C1.60933 8.1 1.44444 8.1 1.31867 8.0892C1.19867 8.0793 1.15378 8.0622 1.132 8.05095C1.04756 8.00775 0.979555 7.93845 0.937333 7.8543C0.926222 7.8318 0.909333 7.7868 0.899556 7.6653C0.889333 7.53795 0.888889 7.37055 0.888889 7.1118V3.6ZM6.22222 4.95C6.22222 4.83065 6.1754 4.71619 6.09205 4.6318C6.0087 4.54741 5.89565 4.5 5.77778 4.5H5.77689C5.71765 4.49998 5.65901 4.51196 5.60441 4.53522C5.54981 4.55848 5.50036 4.59255 5.45895 4.63544C5.41754 4.67833 5.38502 4.72917 5.3633 4.78496C5.34157 4.84076 5.33108 4.90039 5.33244 4.96035V4.96125C5.33377 5.02039 5.3466 5.07868 5.3702 5.1328C5.3938 5.18691 5.4277 5.23578 5.46997 5.27661C5.51224 5.31745 5.56205 5.34944 5.61654 5.37077C5.67104 5.3921 5.72915 5.40233 5.78756 5.4009H5.78844C5.90446 5.39808 6.01478 5.34943 6.09584 5.26534C6.1769 5.18125 6.22226 5.0684 6.22222 4.9509V4.95ZM4.44444 4.95C4.44444 4.83065 4.39762 4.71619 4.31427 4.6318C4.23092 4.54741 4.11787 4.5 4 4.5H3.99911C3.93988 4.49998 3.88123 4.51196 3.82663 4.53522C3.77204 4.55848 3.72258 4.59255 3.68117 4.63544C3.63976 4.67833 3.60724 4.72917 3.58552 4.78496C3.56379 4.84076 3.5533 4.90039 3.55467 4.96035V4.96125C3.55599 5.02039 3.56882 5.07868 3.59242 5.1328C3.61602 5.18691 3.64992 5.23578 3.69219 5.27661C3.73446 5.31745 3.78427 5.34944 3.83876 5.37077C3.89326 5.3921 3.95137 5.40233 4.00978 5.4009H4.01067C4.12668 5.39808 4.23701 5.34943 4.31806 5.26534C4.39912 5.18125 4.44448 5.0684 4.44444 4.9509V4.95ZM2.66667 4.95C2.66667 4.83065 2.61984 4.71619 2.53649 4.6318C2.45314 4.54741 2.3401 4.5 2.22222 4.5H2.22133C2.10346 4.5 1.99041 4.54741 1.90706 4.6318C1.82371 4.71619 1.77689 4.83065 1.77689 4.95V4.9509C1.77687 5.01091 1.78871 5.07033 1.81171 5.12564C1.83471 5.18095 1.86841 5.23105 1.91081 5.27298C1.95322 5.31491 2.00348 5.34783 2.05864 5.3698C2.1138 5.39177 2.17274 5.40234 2.232 5.4009H2.23289C2.3489 5.39808 2.45923 5.34943 2.54029 5.26534C2.62134 5.18125 2.6667 5.0684 2.66667 4.9509V4.95ZM6.22222 6.75C6.22222 6.63065 6.1754 6.51619 6.09205 6.4318C6.0087 6.34741 5.89565 6.3 5.77778 6.3H5.77689C5.71765 6.29998 5.65901 6.31196 5.60441 6.33522C5.54981 6.35848 5.50036 6.39255 5.45895 6.43544C5.41754 6.47833 5.38502 6.52917 5.3633 6.58496C5.34157 6.64076 5.33108 6.70039 5.33244 6.76035V6.76125C5.33377 6.82039 5.3466 6.87868 5.3702 6.9328C5.3938 6.98691 5.4277 7.03578 5.46997 7.07661C5.51224 7.11745 5.56205 7.14944 5.61654 7.17077C5.67104 7.1921 5.72915 7.20233 5.78756 7.2009H5.78844C5.90446 7.19808 6.01478 7.14943 6.09584 7.06534C6.1769 6.98125 6.22226 6.8684 6.22222 6.7509V6.75ZM4.44444 6.75C4.44444 6.63065 4.39762 6.51619 4.31427 6.4318C4.23092 6.34741 4.11787 6.3 4 6.3H3.99911C3.93988 6.29998 3.88123 6.31196 3.82663 6.33522C3.77204 6.35848 3.72258 6.39255 3.68117 6.43544C3.63976 6.47833 3.60724 6.52917 3.58552 6.58496C3.56379 6.64076 3.5533 6.70039 3.55467 6.76035V6.76125C3.55599 6.82039 3.56882 6.87868 3.59242 6.9328C3.61602 6.98691 3.64992 7.03578 3.69219 7.07661C3.73446 7.11745 3.78427 7.14944 3.83876 7.17077C3.89326 7.1921 3.95137 7.20233 4.00978 7.2009H4.01067C4.12668 7.19808 4.23701 7.14943 4.31806 7.06534C4.39912 6.98125 4.44448 6.8684 4.44444 6.7509V6.75ZM2.66667 6.75C2.66667 6.63065 2.61984 6.51619 2.53649 6.4318C2.45314 6.34741 2.3401 6.3 2.22222 6.3H2.22133C2.1621 6.29998 2.10346 6.31196 2.04886 6.33522C1.99426 6.35848 1.9448 6.39255 1.90339 6.43544C1.86199 6.47833 1.82946 6.52917 1.80774 6.58496C1.78602 6.64076 1.77553 6.70039 1.77689 6.76035V6.76125C1.77821 6.82039 1.79104 6.87868 1.81464 6.9328C1.83824 6.98691 1.87214 7.03578 1.91441 7.07661C1.95669 7.11745 2.00649 7.14944 2.06099 7.17077C2.11548 7.1921 2.17359 7.20233 2.232 7.2009H2.23289C2.3489 7.19808 2.45923 7.14943 2.54029 7.06534C2.62134 6.98125 2.6667 6.8684 2.66667 6.7509V6.75Z" fill="#959595"/>
    </symbol>
	 <symbol id="arrow" viewBox="0 0 10 6">
			<path d="M5.00002 -4.37112e-07C5.17924 -4.21444e-07 5.35844 0.0720278 5.49508 0.215781L9.79486 4.74168C10.0684 5.02959 10.0684 5.49637 9.79486 5.78416C9.52145 6.07195 9.07807 6.07195 8.80452 5.78416L5.00002 1.77939L1.19549 5.78402C0.921968 6.07181 0.478632 6.07181 0.205242 5.78402C-0.0684127 5.49623 -0.0684127 5.02945 0.205242 4.74154L4.50496 0.215641C4.64167 0.0718641 4.82086 -4.52775e-07 5.00002 -4.37112e-07Z" fill="white"/>
	 </symbol>
	 <symbol id="send" viewBox="0 0 15 13">
		<path d="M14.1067 5.15624L2.00433 0.112276C1.49447 -0.100242 0.918498 -0.00675376 0.501135 0.356133C0.0837721 0.71908 -0.0907786 1.27827 0.0456276 1.81554L1.2349 6.5L0.0456276 11.1845C-0.0907786 11.7217 0.0837428 12.2809 0.501106 12.6439C0.91926 13.0075 1.49538 13.0998 2.00433 12.8877L14.1067 7.84376C14.6577 7.61411 15 7.09921 15 6.5C15 5.90079 14.6577 5.38588 14.1067 5.15624ZM13.7698 7.02835L1.66747 12.0723C1.46395 12.1571 1.24302 12.1213 1.07641 11.9764C0.909826 11.8315 0.842883 11.6171 0.897316 11.4026L2.0299 6.94139H6.39704C6.63976 6.94139 6.83652 6.74377 6.83652 6.49997C6.83652 6.25617 6.63976 6.05854 6.39704 6.05854H2.02993L0.897316 1.59743C0.842883 1.38297 0.909826 1.16845 1.07641 1.02358C1.24299 0.878718 1.46386 0.842877 1.66744 0.927684L13.7698 5.97165C14.0957 6.10748 14.1211 6.41039 14.1211 6.5C14.1211 6.5896 14.0957 6.89252 13.7698 7.02835Z" fill="#17c0dc"/>
	 </symbol>
</svg>